<?xml version="1.0" standalone="no"?>
<svg viewBox="0 0 200 200" xmlns="http://www.w3.org/2000/svg">
  <path fill="#0D6EFD" d="M35.3,-60C44.4,-49,49.5,-37,56.5,-24.9C63.4,-12.7,72.3,-0.5,75.6,14.4C79,29.3,76.8,47,66.4,55.7C56,64.5,37.4,64.3,22,63.5C6.7,62.8,-5.5,61.5,-18.4,59.3C-31.4,57.1,-45,54,-52.5,45.4C-59.9,36.9,-61,22.9,-64.5,8.4C-67.9,-6.1,-73.7,-21.2,-71.1,-34.9C-68.6,-48.5,-57.7,-60.7,-44.5,-69.8C-31.2,-78.8,-15.6,-84.7,-1.3,-82.7C13.1,-80.7,26.2,-70.9,35.3,-60Z" transform="translate(100 100)" />
</svg>
